HIERARCHY
ROOT Hips
{
	OFFSET 0.000000 0.000000 0.000000
	CHANNELS 6 Xposition Yposition Zposition Zrotation Yrotation Xrotation
	JOINT LHipJoint
	{
		OFFSET 0.000000 0.000000 0.000000
		CHANNELS 3 Zrotation Yrotation Xrotation
		JOINT LeftUpLeg
		{
			OFFSET 1.363060 -1.794630 0.839290
			CHANNELS 3 Zrotation Yrotation Xrotation
			JOINT LeftLeg
			{
				OFFSET 2.448110 -6.726130 0.000000
				CHANNELS 3 Zrotation Yrotation Xrotation
				JOINT LeftFoot
				{
					OFFSET 2.562200 -7.039590 0.000000
					CHANNELS 3 Zrotation Yrotation Xrotation
					JOINT LeftToeBase
					{
						OFFSET 0.157640 -0.433110 2.322550
						CHANNELS 3 Zrotation Yrotation Xrotation
						End Site
						{
							OFFSET 0.000000 0.000000 0.000000
						}
					}
				}
			}
		}
	}
	JOINT RHipJoint
	{
		OFFSET 0.000000 0.000000 0.000000
		CHANNELS 3 Zrotation Yrotation Xrotation
		JOINT RightUpLeg
		{
			OFFSET -1.305520 -1.794630 0.839290
			CHANNELS 3 Zrotation Yrotation Xrotation
			JOINT RightLeg
			{
				OFFSET -2.542530 -6.985550 0.000000
				CHANNELS 3 Zrotation Yrotation Xrotation
				JOINT RightFoot
				{
					OFFSET -2.568260 -7.056230 0.000000
					CHANNELS 3 Zrotation Yrotation Xrotation
					JOINT RightToeBase
					{
						OFFSET -0.164730 -0.452590 2.363150
						CHANNELS 3 Zrotation Yrotation Xrotation
						End Site
						{
							OFFSET 0.000000 0.000000 0.000000
						}
					}
				}
			}
		}
	}
	JOINT LowerBack
	{
		OFFSET 0.000000 0.000000 0.000000
		CHANNELS 3 Zrotation Yrotation Xrotation
		JOINT Spine
		{
			OFFSET 0.028270 2.035590 -0.193380
			CHANNELS 3 Zrotation Yrotation Xrotation
			JOINT Spine1
			{
				OFFSET 0.056720 2.048850 -0.042750
				CHANNELS 3 Zrotation Yrotation Xrotation
				JOINT Neck
				{
					OFFSET 0.000000 0.000000 0.000000
					CHANNELS 3 Zrotation Yrotation Xrotation
					JOINT Neck1
					{
						OFFSET -0.054170 1.746240 0.172020
						CHANNELS 3 Zrotation Yrotation Xrotation
						JOINT Head
						{
							OFFSET 0.104070 1.761360 -0.123970
							CHANNELS 3 Zrotation Yrotation Xrotation
							End Site
							{
								OFFSET 0.000000 0.000000 0.000000
							}
						}
					}
				}
				JOINT LeftShoulder
				{
					OFFSET 0.000000 0.000000 0.000000
					CHANNELS 3 Zrotation Yrotation Xrotation
					JOINT LeftArm
					{
						OFFSET 3.362410 1.200890 -0.311210
						CHANNELS 3 Zrotation Yrotation Xrotation
						JOINT LeftForeArm
						{
							OFFSET 4.983000 -0.000000 -0.000000
							CHANNELS 3 Zrotation Yrotation Xrotation
							JOINT LeftHand
							{
								OFFSET 3.483560 -0.000000 -0.000000
								CHANNELS 3 Zrotation Yrotation Xrotation
								JOINT LeftFingerBase
								{
									OFFSET 0.000000 0.000000 0.000000
									CHANNELS 3 Zrotation Yrotation Xrotation
									JOINT LeftHandIndex1
									{
										OFFSET 0.715260 -0.000000 -0.000000
										CHANNELS 3 Zrotation Yrotation Xrotation
										End Site
										{
											OFFSET 0.000000 0.000000 0.000000
										}
									}
								}
								JOINT LThumb
								{
									OFFSET 0.000000 0.000000 0.000000
									CHANNELS 3 Zrotation Yrotation Xrotation
									End Site
									{
										OFFSET 0.000000 0.000000 0.000000
									}
								}
							}
						}
					}
				}
				JOINT RightShoulder
				{
					OFFSET 0.000000 0.000000 0.000000
					CHANNELS 3 Zrotation Yrotation Xrotation
					JOINT RightArm
					{
						OFFSET -3.136600 1.374050 -0.404650
						CHANNELS 3 Zrotation Yrotation Xrotation
						JOINT RightForeArm
						{
							OFFSET -5.241900 -0.000000 -0.000000
							CHANNELS 3 Zrotation Yrotation Xrotation
							JOINT RightHand
							{
								OFFSET -3.444170 -0.000000 -0.000000
								CHANNELS 3 Zrotation Yrotation Xrotation
								JOINT RightFingerBase
								{
									OFFSET 0.000000 0.000000 0.000000
									CHANNELS 3 Zrotation Yrotation Xrotation
									JOINT RightHandIndex1
									{
										OFFSET -0.622530 -0.000000 -0.000000
										CHANNELS 3 Zrotation Yrotation Xrotation
										End Site
										{
											OFFSET 0.000000 0.000000 0.000000
										}
									}
								}
								JOINT RThumb
								{
									OFFSET 0.000000 0.000000 0.000000
									CHANNELS 3 Zrotation Yrotation Xrotation
									End Site
									{
										OFFSET 0.000000 0.000000 0.000000
									}
								}
							}
						}
					}
				}
			}
		}
	}
}
MOTION
Frames: 8
Frame Time: 0.008333
-2.301215 -2.023827 -10.952775 6.572247 -13.093215 -3.433492 0.616908 -1.684846 -2.859787 -8.705139 -7.117598 19.431236 -7.845313 -0.173937 1.668093 -4.069521 11.946219 8.394130 0.361728 -0.817746 6.619576 4.792640 -0.110657 -1.915881 14.927548 5.498971 -1.057918 -1.206350 -3.270504 13.430463 0.875074 -5.994691 15.504812 1.589686 4.335256 5.047375 -1.234647 2.519007 2.091162 1.701329 1.318062 0.040748 0.963201 0.126639 -0.250395 2.171887 3.514237 -0.936560 -0.602601 2.635493 15.337233 1.308051 0.290212 2.302631 -2.175276 2.108409 3.188912 -57.267250 1.015265 7.457885 13.109190 -14.578793 -3.130824 -0.752616 0.867992 11.711603 15.212845 7.388553 28.606337 -2.375373 0.000000 0.000000 -14.884221 40.608978 27.619843 -0.330067 5.591182 0.660423 34.990826 -30.538509 31.527716 -16.309141 20.423820 -47.021027 -4.651839 2.162633 3.395133 -46.220364 77.371002 40.260635 5.209226 0.000000 0.000000 128.653488 50.230145 86.114136
-2.313937 -1.988564 -10.956273 6.568722 -13.131664 -3.401338 0.622914 -1.684718 -2.870905 -8.757953 -7.142453 19.281202 -7.849237 -0.128000 1.799848 -4.073699 11.943891 8.424062 0.362467 -0.834914 6.544648 4.789370 -0.121012 -1.912049 15.014417 5.520717 -1.071775 -1.207118 -3.303593 13.506935 0.868072 -5.987071 15.508461 1.586377 4.327938 5.032088 -1.225135 2.529191 2.088704 1.707449 1.330019 0.027502 0.960331 0.131723 -0.261447 2.150033 3.501751 -0.994663 -0.580435 2.614268 15.383175 1.309556 0.283781 2.325950 -2.190023 2.109270 3.186773 -57.680790 1.056742 7.471619 13.144246 -14.668570 -3.142932 -0.756162 0.864529 11.724249 15.264079 7.383922 28.613211 -2.407940 0.000000 0.000000 -14.951550 40.680374 27.553776 -0.329605 5.586034 0.654381 35.263226 -30.531420 31.615891 -16.438560 20.535038 -47.075825 -4.649744 2.159402 3.337583 -46.473476 77.291290 40.120964 5.235194 0.000000 0.000000 128.502518 49.998447 85.878174
-2.326295 -1.952352 -10.956681 6.565881 -13.169126 -3.366634 0.631078 -1.683359 -2.880700 -8.806311 -7.163857 19.139160 -7.851462 -0.077433 1.943757 -4.076257 11.948831 8.465555 0.365130 -0.846151 6.488934 4.795949 -0.127754 -1.901601 15.123529 5.555455 -1.063957 -1.203794 -3.329420 13.606750 0.866632 -5.952696 15.549696 1.587841 4.333095 5.053639 -1.205797 2.544450 2.102267 1.718575 1.348724 0.025757 0.964688 0.140572 -0.257465 2.140927 3.498415 -1.036438 -0.551239 2.604691 15.445845 1.320530 0.282945 2.360780 -2.191828 2.120351 3.187143 -58.034412 1.119406 7.541020 13.194000 -14.738132 -3.150056 -0.758044 0.864812 11.784451 15.341584 7.419779 28.638617 -2.436796 0.000000 0.000000 -14.938696 40.849468 27.577007 -0.315991 5.590561 0.651806 35.587410 -30.503128 31.735464 -16.533262 20.678005 -47.108788 -4.644837 2.159171 3.306904 -46.536152 77.295815 40.125042 5.264995 0.000000 0.000000 128.546371 49.878162 85.845505
-2.338690 -1.916228 -10.957804 6.562963 -13.206659 -3.331967 0.639199 -1.681997 -2.890492 -8.854601 -7.185209 18.997213 -7.853667 -0.026801 2.087757 -4.078772 11.953899 8.507308 0.367837 -0.857207 6.433747 4.802846 -0.134366 -1.890856 15.233466 5.590755 -1.055166 -1.200250 -3.354864 13.708017 0.865554 -5.916669 15.593208 1.589616 4.339148 5.077544 -1.185799 2.560046 2.116937 1.730008 1.367867 0.024756 0.969517 0.149655 -0.252547 2.132636 3.495670 -1.077200 -0.521620 2.595845 15.509548 1.332081 0.282433 2.396302 -2.192866 2.132060 3.187665 -58.384254 1.183392 7.613554 13.244596 -14.806623 -3.156891 -0.759849 0.865297 11.846828 15.420370 7.457313 28.664841 -2.465500 0.000000 0.000000 -14.922674 41.022442 27.603807 -0.301865 5.595458 0.649365 35.913567 -30.474007 31.856232 -16.626581 20.822245 -47.140877 -4.639821 2.159061 3.277287 -46.591206 77.303619 40.134872 5.294948 0.000000 0.000000 128.597641 49.762157 85.820580
-2.351177 -1.879482 -10.956983 6.560991 -13.241682 -3.295898 0.648475 -1.680299 -2.900047 -8.901640 -7.205606 18.860556 -7.855212 0.025270 2.235533 -4.080710 11.961086 8.551476 0.370949 -0.865510 6.386302 4.812593 -0.139943 -1.878467 15.347090 5.628698 -1.042163 -1.197266 -3.379761 13.811357 0.864871 -5.883083 15.631557 1.590386 4.342645 5.087071 -1.169919 2.573216 2.124008 1.739065 1.383819 0.017760 0.970591 0.156939 -0.255351 2.117480 3.487992 -1.126887 -0.496008 2.580899 15.564482 1.338410 0.278656 2.425418 -2.201137 2.137913 3.186739 -58.768562 1.235229 7.650280 13.285346 -14.888354 -3.167021 -0.762786 0.863169 11.874997 15.480215 7.464414 28.676624 -2.497161 0.000000 0.000000 -14.971144 41.115337 27.557623 -0.298236 5.592605 0.644128 36.198055 -30.461620 31.951780 -16.747749 20.940962 -47.189461 -4.636924 2.156722 3.227646 -46.787907 77.247269 40.036785 5.322016 0.000000 0.000000 128.503036 49.562508 85.640106
-2.365896 -1.844216 -10.962714 6.556144 -13.282587 -3.265190 0.653021 -1.681101 -2.911858 -8.955202 -7.231041 18.711397 -7.859784 0.071022 2.366298 -4.085069 11.956720 8.583706 0.372049 -0.880098 6.318781 4.813683 -0.148694 -1.871992 15.437652 5.656549 -1.046159 -1.197681 -3.409074 13.899402 0.860517 -5.862668 15.659838 1.589169 4.341116 5.089970 -1.154412 2.585850 2.129373 1.747690 1.399166 0.009815 0.971090 0.164085 -0.260271 2.100890 3.479277 -1.179228 -0.472242 2.564074 15.616735 1.343099 0.274006 2.452818 -2.211331 2.142151 3.185508 -59.161686 1.283958 7.679860 13.324442 -14.972327 -3.177733 -0.765902 0.860819 11.898675 15.537536 7.469174 28.687584 -2.529089 0.000000 0.000000 -15.026242 41.200512 27.504524 -0.295581 5.588942 0.638578 36.477909 -30.451580 32.042034 -16.873337 21.055578 -47.241310 -4.634618 2.153803 3.172756 -47.023178 77.171333 39.909420 5.348296 0.000000 0.000000 128.364532 49.337551 85.414948
-2.380113 -1.807483 -10.963675 6.552504 -13.320326 -3.230036 0.661404 -1.680036 -2.921967 -9.003345 -7.252281 18.571993 -7.862297 0.121575 2.509712 -4.087715 11.959672 8.626031 0.374848 -0.890451 6.267607 4.821014 -0.155139 -1.861175 15.543732 5.692640 -1.036371 -1.195388 -3.433288 14.002997 0.859809 -5.823615 15.709412 1.591032 4.347671 5.113558 -1.135437 2.601354 2.143767 1.759170 1.418161 0.008550 0.975797 0.173548 -0.255752 2.092509 3.476465 -1.220860 -0.443651 2.555349 15.680639 1.354742 0.273611 2.488431 -2.212296 2.153638 3.186079 -59.511761 1.347833 7.750877 13.374312 -15.040579 -3.184567 -0.767717 0.861348 11.960345 15.615880 7.505971 28.712893 -2.557871 0.000000 0.000000 -15.011525 41.372211 27.530552 -0.281412 5.593914 0.636101 36.803722 -30.421858 32.161964 -16.966194 21.200171 -47.272270 -4.629524 2.153776 3.143779 -47.074589 77.176956 39.921913 5.378294 0.000000 0.000000 128.420059 49.223145 85.393494
-2.394379 -1.770837 -10.964970 6.548896 -13.358060 -3.194769 0.669879 -1.678893 -2.932015 -9.051168 -7.273278 18.433170 -7.864673 0.172326 2.653602 -4.090243 11.963021 8.669059 0.377766 -0.900363 6.217795 4.829008 -0.161325 -1.849863 15.651343 5.729577 -1.025218 -1.192806 -3.457028 14.108434 0.859525 -5.782783 15.761484 1.593198 4.355086 5.138786 -1.115986 2.617078 2.158849 1.770838 1.437426 0.007699 0.980765 0.183141 -0.250720 2.084567 3.473964 -1.261920 -0.414839 2.547039 15.745155 1.366746 0.273411 2.524456 -2.212818 2.165478 3.186733 -59.860085 1.412277 7.823467 13.424557 -15.108188 -3.191242 -0.769482 0.861995 12.023464 15.695040 7.543898 28.738745 -2.586562 0.000000 0.000000 -14.995028 41.545635 27.558453 -0.267061 5.599051 0.633658 37.130245 -30.391941 32.282234 -17.058718 21.345152 -47.303032 -4.624410 2.153771 3.114983 -47.124660 77.183022 39.935696 5.408319 0.000000 0.000000 128.479446 49.110371 85.377220
